<?xml version="1.0" encoding="UTF-8" standalone="no"?><svg xmlns="http://www.w3.org/2000/svg" xmlns:xlink="http://www.w3.org/1999/xlink" contentStyleType="text/css" height="456px" preserveAspectRatio="none" style="width:192px;height:456px;background:#FFFFFF;" version="1.1" viewBox="0 0 192 456" width="192px" zoomAndPan="magnify"><defs/><g><!--MD5=[ef597da11d38c0fdcb238d4cec34e5be]
class artisan--><g id="elem_artisan"><rect codeLine="1" fill="#F1F1F1" height="113.1875" id="artisan" rx="2.5" ry="2.5" style="stroke:#181818;stroke-width:0.5;" width="96" x="7" y="7"/><ellipse cx="28.75" cy="23" fill="#ADD1B2" rx="11" ry="11" style="stroke:#181818;stroke-width:1.0;"/><path d="M31.0938,18.6719 C30.1563,18.2344 29.5625,18.0938 28.6875,18.0938 C26.0625,18.0938 24.0625,20.1719 24.0625,22.8906 L24.0625,24.0156 C24.0625,26.5938 26.1719,28.4844 29.0625,28.4844 C30.2813,28.4844 31.4375,28.1875 32.1875,27.6406 C32.7656,27.2344 33.0938,26.7813 33.0938,26.3906 C33.0938,25.9375 32.7031,25.5469 32.2344,25.5469 C32.0156,25.5469 31.8125,25.625 31.625,25.8125 C31.1719,26.2969 31.1719,26.2969 30.9844,26.3906 C30.5625,26.6563 29.875,26.7813 29.1094,26.7813 C27.0625,26.7813 25.7656,25.6875 25.7656,23.9844 L25.7656,22.8906 C25.7656,21.1094 27.0156,19.7969 28.75,19.7969 C29.3281,19.7969 29.9375,19.9531 30.4063,20.2031 C30.8906,20.4844 31.0625,20.7031 31.1563,21.1094 C31.2188,21.5156 31.25,21.6406 31.3906,21.7656 C31.5313,21.9063 31.7656,22.0156 31.9844,22.0156 C32.25,22.0156 32.5156,21.875 32.6875,21.6563 C32.7969,21.5 32.8281,21.3125 32.8281,20.8906 L32.8281,19.4688 C32.8281,19.0313 32.8125,18.9063 32.7188,18.75 C32.5625,18.4844 32.2813,18.3438 31.9844,18.3438 C31.6875,18.3438 31.4844,18.4375 31.2656,18.75 L31.0938,18.6719 Z " fill="#000000"/><text fill="#000000" font-family="sans-serif" font-size="14" lengthAdjust="spacing" textLength="49" x="44.25" y="27.8467">artisan</text><line style="stroke:#181818;stroke-width:0.5;" x1="8" x2="102" y1="39" y2="39"/><text fill="#000000" font-family="sans-serif" font-size="14" lengthAdjust="spacing" textLength="46" x="13" y="55.9951">salaire</text><text fill="#000000" font-family="sans-serif" font-size="14" lengthAdjust="spacing" textLength="84" x="13" y="72.292">coordonnes</text><text fill="#000000" font-family="sans-serif" font-size="14" lengthAdjust="spacing" textLength="51" x="13" y="88.5889">horaire</text><text fill="#000000" font-family="sans-serif" font-size="14" lengthAdjust="spacing" textLength="70" x="13" y="104.8857">specialite</text><line style="stroke:#181818;stroke-width:0.5;" x1="8" x2="102" y1="112.1875" y2="112.1875"/></g><!--MD5=[73d3813f2438fd2b50fd008d88e7e014]
class chantier--><g id="elem_chantier"><rect codeLine="8" fill="#F1F1F1" height="96.8906" id="chantier" rx="2.5" ry="2.5" style="stroke:#181818;stroke-width:0.5;" width="92" x="9" y="353"/><ellipse cx="24" cy="369" fill="#ADD1B2" rx="11" ry="11" style="stroke:#181818;stroke-width:1.0;"/><path d="M26.3438,364.6719 C25.4063,364.2344 24.8125,364.0938 23.9375,364.0938 C21.3125,364.0938 19.3125,366.1719 19.3125,368.8906 L19.3125,370.0156 C19.3125,372.5938 21.4219,374.4844 24.3125,374.4844 C25.5313,374.4844 26.6875,374.1875 27.4375,373.6406 C28.0156,373.2344 28.3438,372.7813 28.3438,372.3906 C28.3438,371.9375 27.9531,371.5469 27.4844,371.5469 C27.2656,371.5469 27.0625,371.625 26.875,371.8125 C26.4219,372.2969 26.4219,372.2969 26.2344,372.3906 C25.8125,372.6563 25.125,372.7813 24.3594,372.7813 C22.3125,372.7813 21.0156,371.6875 21.0156,369.9844 L21.0156,368.8906 C21.0156,367.1094 22.2656,365.7969 24,365.7969 C24.5781,365.7969 25.1875,365.9531 25.6563,366.2031 C26.1406,366.4844 26.3125,366.7031 26.4063,367.1094 C26.4688,367.5156 26.5,367.6406 26.6406,367.7656 C26.7813,367.9063 27.0156,368.0156 27.2344,368.0156 C27.5,368.0156 27.7656,367.875 27.9375,367.6563 C28.0469,367.5 28.0781,367.3125 28.0781,366.8906 L28.0781,365.4688 C28.0781,365.0313 28.0625,364.9063 27.9688,364.75 C27.8125,364.4844 27.5313,364.3438 27.2344,364.3438 C26.9375,364.3438 26.7344,364.4375 26.5156,364.75 L26.3438,364.6719 Z " fill="#000000"/><text fill="#000000" font-family="sans-serif" font-size="14" lengthAdjust="spacing" textLength="60" x="38" y="373.8467">chantier</text><line style="stroke:#181818;stroke-width:0.5;" x1="10" x2="100" y1="385" y2="385"/><text fill="#000000" font-family="sans-serif" font-size="14" lengthAdjust="spacing" textLength="43" x="15" y="401.9951">début</text><text fill="#000000" font-family="sans-serif" font-size="14" lengthAdjust="spacing" textLength="19" x="15" y="418.292">fin</text><text fill="#000000" font-family="sans-serif" font-size="14" lengthAdjust="spacing" textLength="51" x="15" y="434.5889">horaire</text><line style="stroke:#181818;stroke-width:0.5;" x1="10" x2="100" y1="441.8906" y2="441.8906"/></g><!--MD5=[04d440ec53fb2cc018de6d91273d6939]
class Affecter--><g id="elem_Affecter"><rect codeLine="17" fill="#F1F1F1" height="113.1875" id="Affecter" rx="2.5" ry="2.5" style="stroke:#181818;stroke-width:0.5;" width="93" x="92.5" y="180"/><ellipse cx="107.5" cy="196" fill="#ADD1B2" rx="11" ry="11" style="stroke:#181818;stroke-width:1.0;"/><path d="M109.8438,191.6719 C108.9063,191.2344 108.3125,191.0938 107.4375,191.0938 C104.8125,191.0938 102.8125,193.1719 102.8125,195.8906 L102.8125,197.0156 C102.8125,199.5938 104.9219,201.4844 107.8125,201.4844 C109.0313,201.4844 110.1875,201.1875 110.9375,200.6406 C111.5156,200.2344 111.8438,199.7813 111.8438,199.3906 C111.8438,198.9375 111.4531,198.5469 110.9844,198.5469 C110.7656,198.5469 110.5625,198.625 110.375,198.8125 C109.9219,199.2969 109.9219,199.2969 109.7344,199.3906 C109.3125,199.6563 108.625,199.7813 107.8594,199.7813 C105.8125,199.7813 104.5156,198.6875 104.5156,196.9844 L104.5156,195.8906 C104.5156,194.1094 105.7656,192.7969 107.5,192.7969 C108.0781,192.7969 108.6875,192.9531 109.1563,193.2031 C109.6406,193.4844 109.8125,193.7031 109.9063,194.1094 C109.9688,194.5156 110,194.6406 110.1406,194.7656 C110.2813,194.9063 110.5156,195.0156 110.7344,195.0156 C111,195.0156 111.2656,194.875 111.4375,194.6563 C111.5469,194.5 111.5781,194.3125 111.5781,193.8906 L111.5781,192.4688 C111.5781,192.0313 111.5625,191.9063 111.4688,191.75 C111.3125,191.4844 111.0313,191.3438 110.7344,191.3438 C110.4375,191.3438 110.2344,191.4375 110.0156,191.75 L109.8438,191.6719 Z " fill="#000000"/><text fill="#000000" font-family="sans-serif" font-size="14" lengthAdjust="spacing" textLength="61" x="121.5" y="200.8467">Affecter</text><line style="stroke:#181818;stroke-width:0.5;" x1="93.5" x2="184.5" y1="212" y2="212"/><text fill="#000000" font-family="sans-serif" font-size="14" lengthAdjust="spacing" textLength="46" x="98.5" y="228.9951">salaire</text><text fill="#000000" font-family="sans-serif" font-size="14" lengthAdjust="spacing" textLength="60" x="98.5" y="245.292">chantier</text><text fill="#000000" font-family="sans-serif" font-size="14" lengthAdjust="spacing" textLength="43" x="98.5" y="261.5889">debut</text><text fill="#000000" font-family="sans-serif" font-size="14" lengthAdjust="spacing" textLength="19" x="98.5" y="277.8857">fin</text><line style="stroke:#181818;stroke-width:0.5;" x1="93.5" x2="184.5" y1="285.1875" y2="285.1875"/></g><ellipse cx="55" cy="236.5" fill="#000000" rx="2" ry="2" style="stroke:none;stroke-width:1.0;"/><!--MD5=[cdb7790e64ee2d8c5eeb36f488fdd3c4]
link artisan to apoint437794--><g id="link_artisan_apoint437794"><path d="M55,120.019 C55,166.049 55,225.353 55,234.338 " fill="none" id="artisan-apoint437794" style="stroke:#181818;stroke-width:1.0;"/><text fill="#000000" font-family="sans-serif" font-size="13" lengthAdjust="spacing" textLength="23" x="30.5266" y="140.2848">1..*</text></g><!--MD5=[3e7b1f9fca0ad8f7e2e34370a6ab159a]
link apoint437794 to chantier--><g id="link_apoint437794_chantier"><path d="M55,238.541 C55,247.217 55,308.313 55,352.9155 " fill="none" id="apoint437794-chantier" style="stroke:#181818;stroke-width:1.0;"/><text fill="#000000" font-family="sans-serif" font-size="13" lengthAdjust="spacing" textLength="23" x="30.3109" y="341.7622">0..*</text></g><!--MD5=[5b9d6ca80cfbbbf70e43df2854c22a55]
link apoint437794 to Affecter--><g id="link_apoint437794_Affecter"><path d="M57.2969,236.5 C68.9991,236.5 80.7014,236.5 92.4037,236.5 " fill="none" id="apoint437794-Affecter" style="stroke:#181818;stroke-width:1.0;stroke-dasharray:7.0,7.0;"/></g><!--MD5=[65b1a8d4ec7e005deb5ad5633095e952]
@startuml
class artisan  {
     salaire
     coordonnes
     horaire 
     specialite 
}

class chantier  {
     début  
     fin 
     horaire 
}

artisan "1..*" - - "0..*"chantier 
(artisan, chantier) .. Affecter

class Affecter{
     salaire 
     chantier 
     debut 
     fin 
}
@enduml

PlantUML version 1.2022.3beta2(Unknown compile time)
(GPL source distribution)
Java Runtime: Java(TM) SE Runtime Environment
JVM: Java HotSpot(TM) 64-Bit Server VM
Default Encoding: UTF-8
Language: en
Country: US
--></g></svg>